<?xml version="1.0" encoding="UTF-8" standalone="no"?>
<!DOCTYPE svg PUBLIC "-//W3C//DTD SVG 1.1//EN"
 "http://www.w3.org/Graphics/SVG/1.1/DTD/svg11.dtd">
<!-- Generated by graphviz version 2.38.0 (20140413.2041)
 -->
<!-- Title: jsoo Pages: 1 -->
<svg width="368pt" height="279pt"
 viewBox="0.00 0.00 368.00 279.00" xmlns="http://www.w3.org/2000/svg" xmlns:xlink="http://www.w3.org/1999/xlink">
<g id="graph0" class="graph" transform="scale(1 1) rotate(0) translate(4 275)">
<title>jsoo</title>
<polygon fill="white" stroke="none" points="-4,4 -4,-275 364,-275 364,4 -4,4"/>
<!-- reason -->
<g id="node1" class="node"><title>reason</title>
<polygon fill="none" stroke="black" points="171,-271 27,-271 27,-233 171,-233 171,-271"/>
<text text-anchor="middle" x="99" y="-255.8" font-family="Times,serif" font-size="14.00">Reason Syntax</text>
<text text-anchor="middle" x="99" y="-240.8" font-family="Times,serif" font-size="14.00"> (.re, .rei)</text>
</g>
<!-- ast -->
<g id="node3" class="node"><title>ast</title>
<polygon fill="none" stroke="black" points="252,-182 108,-182 108,-146 252,-146 252,-182"/>
<text text-anchor="middle" x="180" y="-160.3" font-family="Times,serif" font-size="14.00">OCaml AST</text>
</g>
<!-- reason&#45;&gt;ast -->
<g id="edge1" class="edge"><title>reason&#45;&gt;ast</title>
<path fill="none" stroke="black" d="M116.178,-232.762C128.09,-220.115 144.084,-203.133 157.081,-189.333"/>
<polygon fill="black" stroke="black" points="159.64,-191.721 163.949,-182.042 154.544,-186.922 159.64,-191.721"/>
<text text-anchor="middle" x="162.5" y="-203.8" font-family="Times,serif" font-size="14.00">refmt</text>
</g>
<!-- ocaml -->
<g id="node2" class="node"><title>ocaml</title>
<polygon fill="none" stroke="black" points="333,-271 189,-271 189,-233 333,-233 333,-271"/>
<text text-anchor="middle" x="261" y="-255.8" font-family="Times,serif" font-size="14.00">Ocaml Syntax</text>
<text text-anchor="middle" x="261" y="-240.8" font-family="Times,serif" font-size="14.00"> (.ml, .mli)</text>
</g>
<!-- ocaml&#45;&gt;ast -->
<g id="edge2" class="edge"><title>ocaml&#45;&gt;ast</title>
<path fill="none" stroke="black" d="M243.822,-232.762C231.91,-220.115 215.916,-203.133 202.919,-189.333"/>
<polygon fill="black" stroke="black" points="205.456,-186.922 196.051,-182.042 200.36,-191.721 205.456,-186.922"/>
<text text-anchor="middle" x="264.5" y="-203.8" font-family="Times,serif" font-size="14.00">OCaml parser</text>
</g>
<!-- native -->
<g id="node4" class="node"><title>native</title>
<polygon fill="none" stroke="black" points="108,-109 0,-109 0,-73 108,-73 108,-109"/>
<text text-anchor="middle" x="54" y="-87.3" font-family="Times,serif" font-size="14.00">Native code</text>
</g>
<!-- ast&#45;&gt;native -->
<g id="edge4" class="edge"><title>ast&#45;&gt;native</title>
<path fill="none" stroke="black" d="M149.82,-145.994C132.956,-136.491 111.74,-124.536 93.5612,-114.292"/>
<polygon fill="black" stroke="black" points="94.8009,-110.974 84.3706,-109.114 91.3644,-117.072 94.8009,-110.974"/>
</g>
<!-- bytecode -->
<g id="node5" class="node"><title>bytecode</title>
<polygon fill="none" stroke="black" points="234,-109 126,-109 126,-73 234,-73 234,-109"/>
<text text-anchor="middle" x="180" y="-87.3" font-family="Times,serif" font-size="14.00">Bytecode</text>
</g>
<!-- ast&#45;&gt;bytecode -->
<g id="edge3" class="edge"><title>ast&#45;&gt;bytecode</title>
<path fill="none" stroke="black" d="M180,-145.813C180,-137.789 180,-128.047 180,-119.069"/>
<polygon fill="black" stroke="black" points="183.5,-119.029 180,-109.029 176.5,-119.029 183.5,-119.029"/>
</g>
<!-- bucklescript -->
<g id="node6" class="node"><title>bucklescript</title>
<polygon fill="none" stroke="blue" points="360,-109 252,-109 252,-73 360,-73 360,-109"/>
<text text-anchor="middle" x="306" y="-87.3" font-family="Times,serif" font-size="14.00">Bucklescript</text>
</g>
<!-- ast&#45;&gt;bucklescript -->
<g id="edge5" class="edge"><title>ast&#45;&gt;bucklescript</title>
<path fill="none" stroke="black" d="M210.18,-145.994C227.044,-136.491 248.26,-124.536 266.439,-114.292"/>
<polygon fill="black" stroke="black" points="268.636,-117.072 275.629,-109.114 265.199,-110.974 268.636,-117.072"/>
</g>
<!-- jsoo -->
<g id="node7" class="node"><title>jsoo</title>
<polygon fill="none" stroke="blue" points="252,-36 108,-36 108,-0 252,-0 252,-36"/>
<text text-anchor="middle" x="180" y="-14.3" font-family="Times,serif" font-size="14.00">js_of_ocaml</text>
</g>
<!-- bytecode&#45;&gt;jsoo -->
<g id="edge6" class="edge"><title>bytecode&#45;&gt;jsoo</title>
<path fill="none" stroke="black" d="M180,-72.8129C180,-64.7895 180,-55.0475 180,-46.0691"/>
<polygon fill="black" stroke="black" points="183.5,-46.0288 180,-36.0288 176.5,-46.0289 183.5,-46.0288"/>
</g>
</g>
</svg>
