<?xml version="1.0" encoding="UTF-8" standalone="no"?>
<!DOCTYPE svg PUBLIC "-//W3C//DTD SVG 1.1//EN"
 "http://www.w3.org/Graphics/SVG/1.1/DTD/svg11.dtd">
<!-- Generated by graphviz version 2.38.0 (20140413.2041)
 -->
<!-- Title: ReasonML Pages: 1 -->
<svg width="368pt" height="220pt"
 viewBox="0.00 0.00 368.00 220.00" xmlns="http://www.w3.org/2000/svg" xmlns:xlink="http://www.w3.org/1999/xlink">
<g id="graph0" class="graph" transform="scale(1 1) rotate(0) translate(4 216)">
<title>ReasonML</title>
<polygon fill="white" stroke="none" points="-4,4 -4,-216 364,-216 364,4 -4,4"/>
<!-- reason -->
<g id="node1" class="node"><title>reason</title>
<polygon fill="none" stroke="black" points="171,-212 27,-212 27,-174 171,-174 171,-212"/>
<text text-anchor="middle" x="99" y="-196.8" font-family="Times,serif" font-size="14.00">Reason Syntax</text>
<text text-anchor="middle" x="99" y="-181.8" font-family="Times,serif" font-size="14.00"> (.re, .rei)</text>
</g>
<!-- ast -->
<g id="node3" class="node"><title>ast</title>
<polygon fill="none" stroke="black" points="252,-123 108,-123 108,-87 252,-87 252,-123"/>
<text text-anchor="middle" x="180" y="-101.3" font-family="Times,serif" font-size="14.00">OCaml AST</text>
</g>
<!-- reason&#45;&gt;ast -->
<g id="edge1" class="edge"><title>reason&#45;&gt;ast</title>
<path fill="none" stroke="black" d="M116.178,-173.762C128.09,-161.115 144.084,-144.133 157.081,-130.333"/>
<polygon fill="black" stroke="black" points="159.64,-132.721 163.949,-123.042 154.544,-127.922 159.64,-132.721"/>
<text text-anchor="middle" x="162.5" y="-144.8" font-family="Times,serif" font-size="14.00">refmt</text>
</g>
<!-- ocaml -->
<g id="node2" class="node"><title>ocaml</title>
<polygon fill="none" stroke="black" points="333,-212 189,-212 189,-174 333,-174 333,-212"/>
<text text-anchor="middle" x="261" y="-196.8" font-family="Times,serif" font-size="14.00">Ocaml Syntax</text>
<text text-anchor="middle" x="261" y="-181.8" font-family="Times,serif" font-size="14.00"> (.ml, .mli)</text>
</g>
<!-- ocaml&#45;&gt;ast -->
<g id="edge2" class="edge"><title>ocaml&#45;&gt;ast</title>
<path fill="none" stroke="black" d="M243.822,-173.762C231.91,-161.115 215.916,-144.133 202.919,-130.333"/>
<polygon fill="black" stroke="black" points="205.456,-127.922 196.051,-123.042 200.36,-132.721 205.456,-127.922"/>
<text text-anchor="middle" x="263.5" y="-144.8" font-family="Times,serif" font-size="14.00">OCaml parser</text>
</g>
<!-- bytecode -->
<g id="node4" class="node"><title>bytecode</title>
<polygon fill="none" stroke="black" points="108,-36 0,-36 0,-0 108,-0 108,-36"/>
<text text-anchor="middle" x="54" y="-14.3" font-family="Times,serif" font-size="14.00">Bytecode</text>
</g>
<!-- ast&#45;&gt;bytecode -->
<g id="edge3" class="edge"><title>ast&#45;&gt;bytecode</title>
<path fill="none" stroke="black" d="M154.502,-86.799C135.289,-73.8376 108.759,-55.9405 87.7811,-41.7888"/>
<polygon fill="black" stroke="black" points="89.7075,-38.8664 79.4601,-36.1754 85.7927,-44.6695 89.7075,-38.8664"/>
<text text-anchor="middle" x="145" y="-57.8" font-family="Times,serif" font-size="14.00">ocamlc</text>
</g>
<!-- native -->
<g id="node5" class="node"><title>native</title>
<polygon fill="none" stroke="black" points="234,-36 126,-36 126,-0 234,-0 234,-36"/>
<text text-anchor="middle" x="180" y="-14.3" font-family="Times,serif" font-size="14.00">Native code</text>
</g>
<!-- ast&#45;&gt;native -->
<g id="edge4" class="edge"><title>ast&#45;&gt;native</title>
<path fill="none" stroke="black" d="M180,-86.799C180,-75.1626 180,-59.5479 180,-46.2368"/>
<polygon fill="black" stroke="black" points="183.5,-46.1754 180,-36.1754 176.5,-46.1755 183.5,-46.1754"/>
<text text-anchor="middle" x="206" y="-57.8" font-family="Times,serif" font-size="14.00">ocamlopt</text>
</g>
<!-- bucklescript -->
<g id="node6" class="node"><title>bucklescript</title>
<polygon fill="none" stroke="black" points="360,-36 252,-36 252,-0 360,-0 360,-36"/>
<text text-anchor="middle" x="306" y="-14.3" font-family="Times,serif" font-size="14.00">Javascript</text>
</g>
<!-- ast&#45;&gt;bucklescript -->
<g id="edge5" class="edge"><title>ast&#45;&gt;bucklescript</title>
<path fill="none" stroke="black" d="M208.132,-86.8884C217.112,-81.301 227.041,-74.9908 236,-69 248.787,-60.4491 262.616,-50.6849 274.579,-42.0681"/>
<polygon fill="black" stroke="black" points="276.871,-44.7297 282.918,-36.0302 272.766,-39.0598 276.871,-44.7297"/>
<text text-anchor="middle" x="290.5" y="-57.8" font-family="Times,serif" font-size="14.00">bucklescript</text>
</g>
</g>
</svg>
